<mxfile host="app.diagrams.net" modified="2024-03-12T21:01:42.006Z" agent="Mozilla/5.0 (Windows NT 10.0; Win64; x64) AppleWebKit/537.36 (KHTML, like Gecko) Chrome/122.0.0.0 Safari/537.36" etag="d_hqOSmwlRniEUWVKhq8" version="22.1.15" type="github">
  <diagram id="-ZyTFZ6aj0sgJGrn6lNl" name="Page-1">
    <mxGraphModel dx="794" dy="454" grid="1" gridSize="10" guides="1" tooltips="1" connect="1" arrows="1" fold="1" page="1" pageScale="1" pageWidth="850" pageHeight="1100" math="0" shadow="0">
      <root>
        <mxCell id="0" />
        <mxCell id="1" parent="0" />
        <mxCell id="XycDPsZ6XoctXvpvFrbW-17" style="edgeStyle=orthogonalEdgeStyle;rounded=0;orthogonalLoop=1;jettySize=auto;html=1;entryX=0;entryY=0.5;entryDx=0;entryDy=0;entryPerimeter=0;exitX=1;exitY=0.5;exitDx=0;exitDy=0;exitPerimeter=0;" parent="1" source="XycDPsZ6XoctXvpvFrbW-1" target="XycDPsZ6XoctXvpvFrbW-14" edge="1">
          <mxGeometry relative="1" as="geometry" />
        </mxCell>
        <mxCell id="XycDPsZ6XoctXvpvFrbW-1" value="Rsyslog infrastructure" style="sketch=0;aspect=fixed;pointerEvents=1;shadow=0;dashed=0;html=1;strokeColor=none;labelPosition=center;verticalLabelPosition=bottom;verticalAlign=top;align=center;fillColor=#00188D;shape=mxgraph.azure.server" parent="1" vertex="1">
          <mxGeometry x="330" y="350" width="50" height="15" as="geometry" />
        </mxCell>
        <mxCell id="XycDPsZ6XoctXvpvFrbW-10" style="edgeStyle=orthogonalEdgeStyle;rounded=0;orthogonalLoop=1;jettySize=auto;html=1;exitX=1;exitY=0.5;exitDx=0;exitDy=0;exitPerimeter=0;" parent="1" source="XycDPsZ6XoctXvpvFrbW-3" edge="1">
          <mxGeometry relative="1" as="geometry">
            <mxPoint x="330" y="360" as="targetPoint" />
            <Array as="points">
              <mxPoint x="90" y="230" />
              <mxPoint x="250" y="230" />
              <mxPoint x="250" y="360" />
            </Array>
          </mxGeometry>
        </mxCell>
        <mxCell id="XycDPsZ6XoctXvpvFrbW-3" value="" style="sketch=0;aspect=fixed;pointerEvents=1;shadow=0;dashed=0;html=1;strokeColor=none;labelPosition=center;verticalLabelPosition=bottom;verticalAlign=top;align=center;fillColor=#00188D;shape=mxgraph.mscae.enterprise.cluster_server" parent="1" vertex="1">
          <mxGeometry x="50" y="160" width="40" height="50" as="geometry" />
        </mxCell>
        <mxCell id="XycDPsZ6XoctXvpvFrbW-11" style="edgeStyle=orthogonalEdgeStyle;rounded=0;orthogonalLoop=1;jettySize=auto;html=1;" parent="1" source="XycDPsZ6XoctXvpvFrbW-4" edge="1">
          <mxGeometry relative="1" as="geometry">
            <mxPoint x="330" y="360" as="targetPoint" />
          </mxGeometry>
        </mxCell>
        <mxCell id="XycDPsZ6XoctXvpvFrbW-4" value="" style="sketch=0;aspect=fixed;pointerEvents=1;shadow=0;dashed=0;html=1;strokeColor=none;labelPosition=center;verticalLabelPosition=bottom;verticalAlign=top;align=center;fillColor=#00188D;shape=mxgraph.mscae.enterprise.database_server" parent="1" vertex="1">
          <mxGeometry x="50" y="250" width="38" height="50" as="geometry" />
        </mxCell>
        <mxCell id="XycDPsZ6XoctXvpvFrbW-12" style="edgeStyle=orthogonalEdgeStyle;rounded=0;orthogonalLoop=1;jettySize=auto;html=1;exitX=1;exitY=0.5;exitDx=0;exitDy=0;exitPerimeter=0;" parent="1" source="XycDPsZ6XoctXvpvFrbW-5" edge="1">
          <mxGeometry relative="1" as="geometry">
            <mxPoint x="330" y="360" as="targetPoint" />
          </mxGeometry>
        </mxCell>
        <mxCell id="XycDPsZ6XoctXvpvFrbW-5" value="" style="sketch=0;aspect=fixed;pointerEvents=1;shadow=0;dashed=0;html=1;strokeColor=none;labelPosition=center;verticalLabelPosition=bottom;verticalAlign=top;align=center;fillColor=#00188D;shape=mxgraph.mscae.enterprise.server_farm" parent="1" vertex="1">
          <mxGeometry x="45.5" y="341.5" width="50" height="32" as="geometry" />
        </mxCell>
        <mxCell id="XycDPsZ6XoctXvpvFrbW-13" style="edgeStyle=orthogonalEdgeStyle;rounded=0;orthogonalLoop=1;jettySize=auto;html=1;entryX=0.015;entryY=0.97;entryDx=0;entryDy=0;entryPerimeter=0;" parent="1" source="XycDPsZ6XoctXvpvFrbW-6" target="XycDPsZ6XoctXvpvFrbW-1" edge="1">
          <mxGeometry relative="1" as="geometry">
            <mxPoint x="270" y="340" as="targetPoint" />
            <Array as="points">
              <mxPoint x="71" y="430" />
              <mxPoint x="280" y="430" />
              <mxPoint x="280" y="365" />
            </Array>
          </mxGeometry>
        </mxCell>
        <mxCell id="XycDPsZ6XoctXvpvFrbW-6" value="" style="sketch=0;aspect=fixed;pointerEvents=1;shadow=0;dashed=0;html=1;strokeColor=none;labelPosition=center;verticalLabelPosition=bottom;verticalAlign=top;align=center;fillColor=#00188D;shape=mxgraph.mscae.enterprise.windows_server" parent="1" vertex="1">
          <mxGeometry x="51" y="450" width="39" height="50" as="geometry" />
        </mxCell>
        <mxCell id="XycDPsZ6XoctXvpvFrbW-7" value="" style="image;html=1;image=img/lib/clip_art/networking/Cloud_Server_Private_128x128.png" parent="1" vertex="1">
          <mxGeometry x="30" y="50" width="80" height="80" as="geometry" />
        </mxCell>
        <mxCell id="XycDPsZ6XoctXvpvFrbW-9" style="edgeStyle=orthogonalEdgeStyle;rounded=0;orthogonalLoop=1;jettySize=auto;html=1;entryX=0;entryY=0.5;entryDx=0;entryDy=0;entryPerimeter=0;" parent="1" source="XycDPsZ6XoctXvpvFrbW-8" target="XycDPsZ6XoctXvpvFrbW-1" edge="1">
          <mxGeometry relative="1" as="geometry" />
        </mxCell>
        <mxCell id="XycDPsZ6XoctXvpvFrbW-8" value="" style="image;html=1;image=img/lib/clip_art/networking/Cloud_Server_128x128.png" parent="1" vertex="1">
          <mxGeometry x="150" y="50" width="80" height="80" as="geometry" />
        </mxCell>
        <mxCell id="XycDPsZ6XoctXvpvFrbW-14" value="sentinel" style="sketch=0;aspect=fixed;pointerEvents=1;shadow=0;dashed=0;html=1;strokeColor=none;labelPosition=center;verticalLabelPosition=bottom;verticalAlign=top;align=center;fillColor=#00188D;shape=mxgraph.mscae.enterprise.web_server" parent="1" vertex="1">
          <mxGeometry x="500" y="110" width="38" height="50" as="geometry" />
        </mxCell>
        <mxCell id="XycDPsZ6XoctXvpvFrbW-18" style="edgeStyle=orthogonalEdgeStyle;rounded=0;orthogonalLoop=1;jettySize=auto;html=1;exitX=0;exitY=0.5;exitDx=0;exitDy=0;exitPerimeter=0;entryX=0.985;entryY=0.97;entryDx=0;entryDy=0;entryPerimeter=0;" parent="1" source="XycDPsZ6XoctXvpvFrbW-15" target="XycDPsZ6XoctXvpvFrbW-1" edge="1">
          <mxGeometry relative="1" as="geometry" />
        </mxCell>
        <mxCell id="XycDPsZ6XoctXvpvFrbW-15" value="application1" style="sketch=0;aspect=fixed;pointerEvents=1;shadow=0;dashed=0;html=1;strokeColor=none;labelPosition=center;verticalLabelPosition=bottom;verticalAlign=top;align=center;fillColor=#00188D;shape=mxgraph.mscae.enterprise.web_server" parent="1" vertex="1">
          <mxGeometry x="500" y="230" width="38" height="50" as="geometry" />
        </mxCell>
        <mxCell id="XycDPsZ6XoctXvpvFrbW-19" style="edgeStyle=orthogonalEdgeStyle;rounded=0;orthogonalLoop=1;jettySize=auto;html=1;exitX=0;exitY=0.5;exitDx=0;exitDy=0;exitPerimeter=0;" parent="1" source="XycDPsZ6XoctXvpvFrbW-16" edge="1">
          <mxGeometry relative="1" as="geometry">
            <mxPoint x="380" y="360" as="targetPoint" />
          </mxGeometry>
        </mxCell>
        <mxCell id="XycDPsZ6XoctXvpvFrbW-16" value="applicationN" style="sketch=0;aspect=fixed;pointerEvents=1;shadow=0;dashed=0;html=1;strokeColor=none;labelPosition=center;verticalLabelPosition=bottom;verticalAlign=top;align=center;fillColor=#00188D;shape=mxgraph.mscae.enterprise.web_server" parent="1" vertex="1">
          <mxGeometry x="500" y="400" width="38" height="50" as="geometry" />
        </mxCell>
      </root>
    </mxGraphModel>
  </diagram>
</mxfile>
